/vscmnt/brussel_pixiu_data/_data_brussel/112/vsc11236/PredSimResults/SUBJ06mtu3D/weighted-LRposFixed/trackIG/worker_04.mot
version=1
nRows=11
nColumns=50
inDegrees=yes
endheader
                time	         pelvis_tilt	         pelvis_list	     pelvis_rotation	           pelvis_tx	           pelvis_ty	           pelvis_tz	       hip_flexion_r	     hip_adduction_r	      hip_rotation_r	        knee_angle_r	       ankle_angle_r	         mtp_angle_r	       hip_flexion_l	     hip_adduction_l	      hip_rotation_l	        knee_angle_l	       ankle_angle_l	         mtp_angle_l	    lumbar_extension	      lumbar_bending	     lumbar_rotation	 ercspn_r/activation	 intobl_r/activation	 extobl_r/activation	    abd_r/activation	    add_r/activation	hamstrings_r/activation	bifemsh_r/activation	glut_max_r/activation	iliopsoas_r/activation	rect_fem_r/activation	  vasti_r/activation	gastroc_r/activation	 soleus_r/activation	tib_ant_r/activation	 ercspn_l/activation	 intobl_l/activation	 extobl_l/activation	    abd_l/activation	    add_l/activation	hamstrings_l/activation	bifemsh_l/activation	glut_max_l/activation	iliopsoas_l/activation	rect_fem_l/activation	  vasti_l/activation	gastroc_l/activation	 soleus_l/activation	tib_ant_l/activation	
          1.29492092	         -8.16581807	         -4.76599396	          9.84125568	          1.43736222	          0.92634965	         -0.01738539	         31.37263666	          0.47787422	         -6.26403576	         -1.10778970	          6.59253841	          0.21363502	         -9.68084335	         -4.82882396	          8.35388778	         -6.62436765	         10.06815796	         29.86698125	         -1.41618578	          2.68372332	         -3.13271943	          0.10081693	          0.16656344	          0.02821949	          0.01215819	          0.11091588	          0.08657487	          0.22274031	          0.00999999	          0.09666765	          0.00999999	          0.00999999	          0.02477130	          0.00999999	          0.28892562	          0.05860136	          0.00999999	          0.00999999	          0.06063668	          0.01525979	          0.02027467	          0.14653713	          0.05895946	          0.45271739	          0.00999999	          0.00999999	          0.36913726	          0.34129252	          0.01797246	
          1.30787013	         -8.27839138	         -4.68587600	          9.87812155	          1.45481406	          0.92405713	         -0.01694880	         31.53946783	          0.59987452	         -5.97800226	         -2.88078590	          6.13510964	          0.21041120	        -10.00117396	         -4.80138494	          7.93613027	         -7.82277516	          9.43176713	         31.81474027	         -1.11122659	          3.01923878	         -3.28274152	          0.08292092	          0.13699677	          0.02321025	          0.00999999	          0.16071290	          0.07887977	          0.18320169	          0.06529561	          0.07950818	          0.00999999	          0.00999999	          0.02827471	          0.01898408	          0.29986332	          0.09848248	          0.00999999	          0.00999999	          0.04987306	          0.05310696	          0.01667572	          0.12052533	          0.04849357	          0.46796523	          0.00999999	          0.00999999	          0.34078609	          0.32272698	          0.01478217	
          1.32081934	         -8.36905506	         -4.59389667	          9.85389934	          1.47271681	          0.92202124	         -0.01643593	         31.48678847	          0.70677992	         -5.67634848	         -4.51662894	          5.64779762	          0.19549256	        -10.19564798	         -4.74184462	          7.48552379	         -9.33776774	          8.64156529	         33.82417035	         -0.78419699	          3.35504716	         -3.40532926	          0.07553876	          0.11267848	          0.01909020	          0.05858516	          0.13379628	          0.07839275	          0.15068157	          0.10487808	          0.06539469	          0.00999999	          0.00999999	          0.02325567	          0.01561422	          0.35570843	          0.10212902	          0.00999999	          0.00999999	          0.04102010	          0.04689118	          0.02294137	          0.09913089	          0.03988548	          0.45671335	          0.00999999	          0.01439357	          0.30177774	          0.29873787	          0.01215819	
          1.33376855	         -8.44063336	         -4.48780428	          9.76953313	          1.49078243	          0.92047874	         -0.01581794	         31.24151716	          0.82821323	         -5.42859919	         -5.82447513	          4.99809647	          0.17030456	        -10.16529200	         -4.64059981	          7.01210365	        -11.29106632	          7.63750061	         35.88592567	         -0.46523875	          3.68562672	         -3.49449953	          0.08453872	          0.09267693	          0.01570150	          0.11304874	          0.14862982	          0.07195385	          0.12393410	          0.15038858	          0.05378648	          0.00999999	          0.00999999	          0.01912755	          0.01284254	          0.39163961	          0.13141312	          0.00999999	          0.00999999	          0.03373862	          0.05608414	          0.02305321	          0.08153417	          0.03280541	          0.44188656	          0.01000000	          0.01478217	          0.24820920	          0.25948664	          0.00999999	
          1.34671776	         -8.49253701	         -4.37412153	          9.62896687	          1.50875538	          0.91959564	         -0.01511326	         30.89757027	          0.96815786	         -5.22606326	         -7.01644926	          4.50964435	          0.13950388	         -9.83674024	         -4.49878256	          6.51271527	        -13.77145408	          6.39774839	         37.89463341	         -0.17670530	          4.02143684	         -3.54596963	          0.08133990	          0.07622586	          0.01291433	          0.15073712	          0.15516827	          0.06604719	          0.10193456	          0.17904705	          0.04423885	          0.00999999	          0.01462574	          0.01573222	          0.01156054	          0.41316049	          0.16016374	          0.00999999	          0.00999999	          0.02774968	          0.07322353	          0.02645737	          0.06706105	          0.02698212	          0.40848714	          0.00999999	          0.01215819	          0.20414960	          0.21342518	          0.00999999	
          1.35966697	         -8.52441641	         -4.25679570	          9.43476373	          1.52642095	          0.91944952	         -0.01434981	         30.50716638	          1.12152133	         -5.05035281	         -8.16738598	          4.23230064	          0.11605264	         -9.16060648	         -4.31919209	          5.97670427	        -16.83334350	          4.94294398	         39.61598815	          0.06381626	          4.36963378	         -3.55679777	          0.07461811	          0.06269501	          0.01062191	          0.16706917	          0.12762436	          0.06512361	          0.08384017	          0.18199815	          0.03638601	          0.00999999	          0.10009066	          0.01293960	          0.00999999	          0.42163615	          0.17515040	          0.00999999	          0.00999999	          0.02282384	          0.10275344	          0.03230097	          0.05515704	          0.02219253	          0.35243418	          0.00999999	          0.00999999	          0.16791102	          0.17554009	          0.00999999	
          1.37261618	         -8.53807561	         -4.12773969	          9.19019203	          1.54363228	          0.92010206	         -0.01357059	         30.03205237	          1.27981890	         -4.87106943	         -9.17376454	          4.11006194	          0.09362679	         -8.12328203	         -4.09985519	          5.39014508	        -20.46983993	          3.36547707	         40.57515437	          0.24426045	          4.72387686	         -3.52644707	          0.06137265	          0.05156602	          0.00999999	          0.16865634	          0.10496977	          0.06004888	          0.06895770	          0.17090729	          0.02992713	          0.00999999	          0.17037867	          0.01064269	          0.00999999	          0.41574168	          0.18903518	          0.00999999	          0.00999999	          0.01877238	          0.12161670	          0.02656723	          0.04961635	          0.01825313	          0.28987361	          0.00999999	          0.00999999	          0.13810514	          0.14437998	          0.00999999	
          1.38556539	         -8.53508872	         -3.97357140	          8.89701496	          1.56035762	          0.92154460	         -0.01280129	         29.42128190	          1.43297393	         -4.65829238	         -9.94624019	          4.15666059	          0.07785929	         -6.75713490	         -3.84392685	          4.75076810	        -24.59891574	          1.70886214	         40.41520464	          0.36295325	          5.06777792	         -3.45575403	          0.05047840	          0.04241254	          0.00999999	          0.16284189	          0.08633659	          0.05731294	          0.05671703	          0.15489779	          0.02461477	          0.00999999	          0.20583259	          0.00999999	          0.00999999	          0.39972526	          0.19584418	          0.00999999	          0.00999999	          0.01544010	          0.13342354	          0.02185128	          0.06275319	          0.01501302	          0.23841817	          0.00999999	          0.00999999	          0.11359011	          0.11875110	          0.00999999	
          1.39851460	         -8.51693093	         -3.77962302	          8.55609884	          1.57662998	          0.92367934	         -0.01205698	         28.65029502	          1.56596532	         -4.39150113	        -10.44069907	          4.33346391	          0.07120283	         -5.12796448	         -3.55292942	          4.08373495	        -29.03032058	         -0.22814033	         39.31749430	          0.42463423	          5.38193904	         -3.34570475	          0.04151798	          0.03488389	          0.00999999	          0.15679629	          0.07101099	          0.05544594	          0.04664919	          0.13688944	          0.02024540	          0.00999999	          0.21211519	          0.00999999	          0.00999999	          0.37690289	          0.19691430	          0.00999999	          0.00999999	          0.01269933	          0.14220329	          0.01797246	          0.07588866	          0.01234806	          0.19609658	          0.00999999	          0.00999999	          0.09342674	          0.09767160	          0.00999999	
          1.41146381	         -8.48457586	         -3.53053964	          8.16800116	          1.59248057	          0.92634514	         -0.01134749	         27.73370170	          1.65911714	         -4.05050817	        -10.68144955	          4.59525330	          0.07199348	         -3.30586483	         -3.21936764	          3.41961061	        -33.59659634	         -2.37401413	         37.13359568	          0.43230465	          5.64632195	         -3.19735964	          0.03414813	          0.02869166	          0.00999999	          0.15757296	          0.05840583	          0.05011165	          0.03836850	          0.11259020	          0.01665164	          0.00999999	          0.19502100	          0.00999999	          0.00999999	          0.34852832	          0.19643917	          0.01128977	          0.02644251	          0.01044507	          0.13915656	          0.01478217	          0.06241767	          0.01015616	          0.16128749	          0.00999999	          0.00999999	          0.07684256	          0.08033392	          0.06161475	
          1.42441301	         -8.43811054	         -3.23020490	          7.73966570	          1.60790052	          0.92932228	         -0.01068019	         26.72276944	          1.70724912	         -3.62156557	        -10.75345458	          4.91896975	          0.08266169	         -1.35881612	         -2.84350526	          2.78955503	        -38.21048705	         -4.23376958	         33.38853919	          0.38611842	          5.85982360	         -3.01882615	          0.02808649	          0.02359860	          0.00999999	          0.15124153	          0.04803822	          0.04321339	          0.03155771	          0.09913125	          0.01369581	          0.00999999	          0.17843254	          0.00999999	          0.00999999	          0.32170232	          0.22633714	          0.04902852	          0.07336337	          0.00999999	          0.11445489	          0.01215819	          0.05133800	          0.00999999	          0.13265735	          0.00999999	          0.00999999	          0.06320224	          0.06607385	          0.18085708	
